<svg xmlns="http://www.w3.org/2000/svg" width="941" height="360" viewBox="0 0 941 360"><g transform="translate(-469 -340)"><text transform="translate(470 567)" font-size="174" font-family="Pacifico-Regular, Pacifico"><tspan x="0" y="0">Freschissimo</tspan></text><g transform="translate(1122 344.704)"><path d="M7.866,282.005a.883.883,0,0,0,0,1.735l14.07,4.415V277.588Z" transform="translate(-5.516 -191.172)" fill="#333e40"/><ellipse cx="14.398" cy="13.328" rx="14.398" ry="13.328" transform="translate(76.89 37.547) rotate(106.887)" fill="#d9d9d9"/><ellipse cx="16.45" cy="15.227" rx="16.45" ry="15.227" transform="translate(24.532 71.546) rotate(-106.887)" fill="#f0f0f0"/><path d="M114.241,184.595V163.96l9.053-17.706-1.962-7.149a61.311,61.311,0,0,0-17.979,6.28L94,151.931,88.68,168.619v15.843L95.2,199.505l8.149,7.17a61.311,61.311,0,0,0,17.979,6.28l3.294-7.858Z" transform="translate(-68.419 -84.328)" fill="#ffce1c"/><path d="M133.142,380.734c-.905-.132-1.8-.278-2.691-.445a61.311,61.311,0,0,1-17.979-6.28,47.15,47.15,0,0,1-11.971-9.12l3.822,8.815,8.149,7.17q.5.27,1,.532,1.52.786,3.118,1.493a62.02,62.02,0,0,0,9.015,3.159q2.37.632,4.842,1.1Z" transform="translate(-77.539 -258.527)" fill="#faa330"/><g transform="translate(13.895 53.597)"><path d="M72.294,197.234a53.478,53.478,0,0,0,9.562,30.647c-12.764-6.943-21.038-18.084-21.038-30.647s8.274-23.7,21.038-30.644A53.477,53.477,0,0,0,72.294,197.234Z" transform="translate(-60.818 -159.131)" fill="#3b484a"/><path d="M239.046,189.689c-5.536,8.431-15.027,15-26.983,18.245a65.777,65.777,0,0,1-17.214,2.22,69.8,69.8,0,0,1-12.856-1.18,53.76,53.76,0,0,1,0-73.85,69.761,69.761,0,0,1,12.856-1.18c13.983,0,26.125,4.063,34.893,10.671a40.962,40.962,0,0,1,6.835,6.466Z" transform="translate(-142.975 -133.944)" fill="#3b484a"/></g><path d="M239.541,368.136a65.776,65.776,0,0,1-17.214,2.22,69.806,69.806,0,0,1-12.856-1.18,65.313,65.313,0,0,1-6.55-1.579,53.053,53.053,0,0,0,6.55,8.443q.771.145,1.551.272A67.74,67.74,0,0,0,239.542,375c9.728-2.638,19.072-7.872,25.323-15.924q.881-1.135,1.66-2.321l-.4-6.271C260.536,358.629,251.215,364.971,239.541,368.136Z" transform="translate(-156.558 -247.413)" fill="#333e40"/><path d="M286.279,206.479A31.836,31.836,0,0,1,280.9,224.12c-13.368,20.244-44.967,19-56.1-3.728a31.45,31.45,0,0,1-3.25-13.914,32.07,32.07,0,0,1,6.131-18.738,21.618,21.618,0,0,1,32.65-3.124c.149.147.3.294.445.445.149-.151.3-.3.445-.445l.09-.087a11.717,11.717,0,0,1,17.116.982A33.2,33.2,0,0,1,286.279,206.479Z" transform="translate(-170.934 -114.778)" fill="#ffce1c"/><path d="M365.526,288.9q-.04-1.241-.179-2.476a32.384,32.384,0,0,1-5.183,14.044c-5.536,8.431-15.027,15-26.983,18.245a62.922,62.922,0,0,1-8.89,1.722c12.9,3.563,27.752-.8,35.873-13.1a32.184,32.184,0,0,0,5.339-15.946C365.546,290.568,365.553,289.732,365.526,288.9Z" transform="translate(-250.198 -197.986)" fill="#faa330"/><path d="M61.037,285.694c-.039.324-.072.649-.1.975-.01.113-.017.227-.026.34a28.617,28.617,0,0,0,1.066,10.127A35.571,35.571,0,0,0,73.2,313.821a49.437,49.437,0,0,0,8.672,5.951,53.178,53.178,0,0,1-5.646-10.424C67.756,303.195,62.158,294.919,61.037,285.694Z" transform="translate(-46.933 -197.426)" fill="#333e40"/><circle cx="4.041" cy="4.041" r="4.041" transform="translate(84.453 36.957)" fill="#ffce1c"/><path d="M377.55,73.778a4.038,4.038,0,0,1-7.746-.012,4.046,4.046,0,1,0,7.746.012Z" transform="translate(-285.183 -33.918)" fill="#faa330"/><circle cx="4.041" cy="4.041" r="4.041" transform="translate(98.515 39.835)" fill="#ffce1c"/><path d="M439.094,86.382a4.038,4.038,0,0,1-7.746-.012,4.046,4.046,0,1,0,7.746.012Z" transform="translate(-332.665 -43.642)" fill="#faa330"/><path d="M317.081,290.245a1.716,1.716,0,0,0-1.716,1.716v2.929a1.716,1.716,0,1,0,3.432,0v-2.929A1.716,1.716,0,0,0,317.081,290.245Z" transform="translate(-243.312 -200.937)"/><path d="M458.734,290.245a1.716,1.716,0,0,0-1.716,1.716v2.929a1.716,1.716,0,1,0,3.432,0v-2.929A1.716,1.716,0,0,0,458.734,290.245Z" transform="translate(-352.6 -200.937)"/><path d="M379.544,302.594a1.716,1.716,0,0,0-2.421.163,3.683,3.683,0,0,1-5.4,0,1.716,1.716,0,1,0-2.584,2.259,7.113,7.113,0,0,0,10.572,0A1.716,1.716,0,0,0,379.544,302.594Z" transform="translate(-284.469 -210.138)"/><path d="M108.9,75.3a40.805,40.805,0,0,0-7.119-6.872q-1.736-1.308-3.62-2.471a34.776,34.776,0,0,1,3-10.989,5.72,5.72,0,0,0,1.48.2,5.758,5.758,0,1,0-5.708-5.053,5.731,5.731,0,0,0,1.316,3,37.1,37.1,0,0,0-3.309,11.012A56.575,56.575,0,0,0,84.562,60a32.915,32.915,0,0,1,2.53-7.91,5.721,5.721,0,0,0,1.479.2,5.791,5.791,0,0,0,4.544-2.216,5.758,5.758,0,0,0-4.534-9.3,5.817,5.817,0,0,0-5.719,6.463,5.731,5.731,0,0,0,1.318,3,35.958,35.958,0,0,0-2.946,8.9,65.838,65.838,0,0,0-6.986-1.22c.063-.185.126-.369.182-.555a16.618,16.618,0,0,0-.876-12.124,14.458,14.458,0,0,0-8.837-7.665c-6.956-2.111-14.289,1.524-17.688,7.753a17.4,17.4,0,0,0-13.274-6.475,15.91,15.91,0,0,0-4.625.687c-8.939,2.713-13.844,12.718-10.935,22.3a18.823,18.823,0,0,0,6.722,9.682,41.5,41.5,0,0,0-6.611,7.3A33.2,33.2,0,0,0,12.86,91.294L1.99,94.707a2.6,2.6,0,0,0,0,5.054l10.87,3.411a33.2,33.2,0,0,0,5.445,12.477A46.391,46.391,0,0,0,34.2,129.387a62.77,62.77,0,0,0,18.482,6.459,71.636,71.636,0,0,0,13.172,1.209,67.516,67.516,0,0,0,17.664-2.279c12.163-3.3,22.089-10.022,27.952-18.936l.016-.024C119.885,103.088,118.366,86.987,108.9,75.3ZM100.8,47.98a2.309,2.309,0,0,1,1.549-.877,2.375,2.375,0,0,1,.29-.018,2.326,2.326,0,0,1,.28,4.633,2.38,2.38,0,0,1-.29.018A2.326,2.326,0,0,1,100.8,47.98ZM88.291,44.223a2.325,2.325,0,1,1-2.023,2.591A2.367,2.367,0,0,1,88.291,44.223Zm20.317,69.7a30.831,30.831,0,0,1-53.116-3.532,30.327,30.327,0,0,1,2.738-30.9c6.9-9.694,21.472-11.335,30.049-2.9a2.34,2.34,0,0,0,1.648.938,2.607,2.607,0,0,0,1.726-1.014,10,10,0,0,1,14.607.846,31.608,31.608,0,0,1,7.45,19.882A29.875,29.875,0,0,1,108.608,113.924ZM49.258,48.665a12.55,12.55,0,0,1,11.349-8.274,10.71,10.71,0,0,1,3.112.463,11.064,11.064,0,0,1,6.747,5.88,13.2,13.2,0,0,1,.679,9.628q-.186.614-.434,1.217c-.2-.013-2.042-.108-2.766-.132q-3.579-.1-7.155.143c-1.119.078-3.407.318-3.434.322,1.013-3.025,2.866-7.311,5.888-10.265a1.716,1.716,0,0,0-2.4-2.454c-1.833,1.793-5.135,5.851-7.255,13.267q-1.092.19-2.178.413a19.184,19.184,0,0,0-.22-4.4A19.493,19.493,0,0,0,49.258,48.665Zm-21.584,20.6a15.339,15.339,0,0,1-6.2-8.428c-2.36-7.774,1.52-15.859,8.647-18.022,6.275-1.9,12.814,1.526,15.894,7.08a15.969,15.969,0,0,1,1.868,9.741c0,.02,0,.04-.008.061a63.677,63.677,0,0,0-6.759,2.185c-1.266-3.934-3.675-9.657-7.811-13.7a1.716,1.716,0,1,0-2.4,2.454c3.731,3.649,5.909,9,7.035,12.582a56.531,56.531,0,0,0-6,3.162C31.094,66.9,27.746,69.317,27.674,69.269ZM12.341,99.412,5.4,97.234l6.942-2.179c-.018.245-.028.49-.04.735A29.944,29.944,0,0,0,12.341,99.412Zm8.786,14.257a29.225,29.225,0,0,1-5.074-12.051c0-.018,0-.036-.005-.054a26.788,26.788,0,0,1,0-8.663c0-.019,0-.037.005-.055,1.085-8.137,6.636-15.292,12.92-20.243.191-.151.783-.6.808-.622-.013.026-.442.885-.637,1.291a55.8,55.8,0,0,0,.6,49.138c.013.026.026.053.039.079A39.878,39.878,0,0,1,21.127,113.669Zm15.07,12.9q-.236-.344-.467-.692a51.58,51.58,0,0,1-3.8-6.814,52.307,52.307,0,0,1,2.9-49.05c.3-.491,1.312-2.024,1.367-2.105l.119-.063a57.749,57.749,0,0,1,11.7-4.621l.252-.068q-1.293,1.651-2.455,3.4a55.63,55.63,0,0,0,.988,62.8c.165.231,1.22,1.648,1.471,1.969A57.8,57.8,0,0,1,36.2,126.566Zm46.419,4.9a64.08,64.08,0,0,1-16.765,2.16,68.312,68.312,0,0,1-11.987-1.049,51.429,51.429,0,0,1-9.279-13.942,52.354,52.354,0,0,1,2.778-48.109,51.237,51.237,0,0,1,6.5-8.624l.527-.093a68.116,68.116,0,0,1,17.144-.724c10.244.863,19.637,4.059,27,9.232a13.267,13.267,0,0,0-8.595,3.132,22.868,22.868,0,0,0-15.328-5.837A23.574,23.574,0,0,0,55.434,77.5a33.928,33.928,0,0,0-6.449,19.734A33.423,33.423,0,0,0,52.41,111.9a34.145,34.145,0,0,0,30.654,18.994c.328,0,1.5-.032,1.629-.037Q83.668,131.178,82.616,131.463Z" transform="translate(0 -5.527)"/></g><text transform="translate(509 672)" fill="#ffce1c" font-size="60" font-family="Pacifico-Regular, Pacifico"><tspan x="0" y="0" fill="#000">NodeJS </tspan><tspan y="0" fill="#ffce1c">Gateway</tspan><tspan y="0" xml:space="preserve" fill="#000"> - Made </tspan><tspan y="0" fill="#ffce1c">Simple</tspan></text></g></svg>